<svg width="106" height="32" viewBox="0 0 106 32" fill="none" xmlns="http://www.w3.org/2000/svg">
<path d="M25.0202 23.8684C23.8714 23.8684 22.9618 23.5327 22.2916 22.8614C21.6215 22.19 21.2864 21.3566 21.2864 20.3612C21.2864 19.3658 21.6215 18.5324 22.2916 17.861C22.9618 17.1897 23.8714 16.854 25.0202 16.854C26.1691 16.854 27.0786 17.1897 27.7488 17.861C28.4429 18.5324 28.79 19.3658 28.79 20.3612C28.79 21.3566 28.4429 22.19 27.7488 22.8614C27.0786 23.5327 26.1691 23.8684 25.0202 23.8684Z" fill="#FF2E6A"/>
<path d="M45.5948 0C45.6896 0.551724 45.7371 1.05747 45.7371 1.51724C45.7371 2.29885 45.6066 2.87356 45.3458 3.24138C45.0849 3.6092 44.6698 3.7931 44.1006 3.7931H39.3337V24.1379H33.9264V3.7931H27.6653V0H45.5948Z" fill="#1E266D"/>
<path d="M65.3094 5.17242L57.732 25.5862C56.9257 27.7471 55.9652 29.2759 54.8505 30.1724C53.7358 31.069 52.2299 31.5172 50.3326 31.5172C49.1467 31.5172 48.1862 31.2874 47.451 30.8276C46.7158 30.3678 46.3482 29.7701 46.3482 29.0345C46.3482 28.6437 46.4194 28.2874 46.5617 27.9655C46.704 27.6667 46.953 27.3103 47.3087 26.8966C47.9016 27.2874 48.625 27.4828 49.4788 27.4828C50.38 27.4828 51.0796 27.2184 51.5777 26.6897C52.0994 26.1839 52.5975 25.2299 53.0718 23.8276L46.0992 5.17242H51.5065L55.7399 17.8621L59.9021 5.17242H65.3094Z" fill="#1E266D"/>
<path d="M77.7304 4.82759C80.268 4.82759 82.189 5.63218 83.4934 7.24138C84.7978 8.82759 85.45 11.1724 85.45 14.2759C85.45 16.2989 85.0706 18.0805 84.3117 19.6207C83.5527 21.1609 82.4855 22.3563 81.11 23.2069C79.7344 24.0575 78.1454 24.4828 76.343 24.4828C75.3469 24.4828 74.1255 24.2874 72.6788 23.8966V32H67.4138V12.4138C67.4138 10.5517 67.3308 9.2069 67.1648 8.37931C67.0225 7.52874 66.7142 6.8046 66.2399 6.2069C66.9039 5.83908 67.6035 5.55173 68.3388 5.34483C69.0977 5.13793 69.8092 5.03448 70.4732 5.03448C70.9713 5.03448 71.3744 5.1954 71.6827 5.51724C71.9911 5.83908 72.2282 6.33333 72.3942 7C73.8172 5.55173 75.5959 4.82759 77.7304 4.82759ZM75.5959 21.1724C77.0663 21.1724 78.181 20.5862 78.9399 19.4138C79.7226 18.2414 80.1139 16.5287 80.1139 14.2759C80.1139 12.1379 79.8293 10.5747 79.2601 9.58621C78.6909 8.57471 77.7897 8.06897 76.5564 8.06897C75.7975 8.06897 75.0623 8.24138 74.3508 8.58621C73.6393 8.93104 73.082 9.35632 72.6788 9.86207V10.3103V20.5517C73.6512 20.9655 74.6236 21.1724 75.5959 21.1724Z" fill="#1E266D"/>
<path d="M106 13.4138C106 13.7356 105.941 14.4598 105.822 15.5862H93.2286C93.3472 17.3333 93.7741 18.6897 94.5093 19.6552C95.2682 20.6207 96.2524 21.1034 97.4619 21.1034C98.0074 21.1034 98.458 21.0345 98.8138 20.8966C99.1932 20.7586 99.5727 20.5172 99.9522 20.1724C100.355 19.8046 100.877 19.2184 101.517 18.4138C101.636 18.2299 101.885 18.1379 102.264 18.1379C102.668 18.1379 103.154 18.2759 103.723 18.5517C104.316 18.8046 104.944 19.1724 105.608 19.6552C104.067 22.8736 101.351 24.4828 97.4619 24.4828C94.4737 24.4828 92.1258 23.6092 90.4182 21.8621C88.7106 20.092 87.8569 17.6782 87.8569 14.6207C87.8569 12.6207 88.2363 10.8851 88.9952 9.41379C89.7779 7.94253 90.8807 6.81609 92.3037 6.03448C93.7504 5.22989 95.4579 4.82759 97.4264 4.82759C100.154 4.82759 102.264 5.57471 103.759 7.06897C105.253 8.56322 106 10.6782 106 13.4138ZM100.664 12.6897C100.664 9.6092 99.549 8.06897 97.3196 8.06897C96.1813 8.06897 95.2682 8.45977 94.5804 9.24138C93.8926 10.023 93.4658 11.1724 93.2997 12.6897H100.664Z" fill="#1E266D"/>
<path d="M14.123 11.6552C15.3563 12 16.3642 12.6782 17.1469 13.6897C17.9532 14.6782 18.3564 15.8161 18.3564 17.1035C18.3564 19.3333 17.5619 21.069 15.9729 22.3103C14.3839 23.5287 12.1427 24.1379 9.24934 24.1379H0V0H8.8936C11.455 0 13.4827 0.609196 14.9768 1.82759C16.4709 3.02299 17.218 4.64368 17.218 6.68966C17.218 7.86207 16.9453 8.88506 16.3998 9.75862C15.8543 10.6322 15.0954 11.2644 14.123 11.6552ZM11.6684 6.68966C11.6684 5.63218 11.3245 4.86207 10.6367 4.37931C9.97269 3.89655 8.91731 3.65517 7.47062 3.65517H5.47846V10H7.3639C8.85802 10 9.94897 9.73563 10.6367 9.2069C11.3245 8.67816 11.6684 7.83908 11.6684 6.68966ZM8.18211 20.4828C9.41535 20.4828 10.3521 20.3908 10.9925 20.2069C11.6565 20 12.119 19.6552 12.3799 19.1724C12.6645 18.6897 12.8068 18 12.8068 17.1035C12.8068 15.8391 12.451 14.954 11.7395 14.4483C11.0518 13.9195 9.84225 13.6552 8.11096 13.6552H5.47846V20.4828H8.18211Z" fill="#1E266D"/>
</svg>
