<svg width="84" height="26" viewBox="0 0 84 26" fill="none" xmlns="http://www.w3.org/2000/svg">
<path d="M19.8266 18.914C18.9162 18.914 18.1954 18.648 17.6644 18.116C17.1333 17.584 16.8677 16.9236 16.8677 16.1347C16.8677 15.3459 17.1333 14.6855 17.6644 14.1535C18.1954 13.6215 18.9162 13.3555 19.8266 13.3555C20.737 13.3555 21.4578 13.6215 21.9889 14.1535C22.5389 14.6855 22.8139 15.3459 22.8139 16.1347C22.8139 16.9236 22.5389 17.584 21.9889 18.116C21.4578 18.648 20.737 18.914 19.8266 18.914Z" fill="#FF2E6A"/>
<path d="M36.1321 0C36.2072 0.43721 36.2448 0.837987 36.2448 1.20233C36.2448 1.82171 36.1415 2.27714 35.9347 2.56861C35.728 2.86009 35.3991 3.00582 34.9481 3.00582H31.1705V19.128H26.8855V3.00582H21.924V0H36.1321Z" fill="#1E266D"/>
<path d="M51.7548 4.09885L45.7502 20.2756C45.1112 21.9881 44.35 23.1995 43.4667 23.91C42.5834 24.6204 41.39 24.9757 39.8865 24.9757C38.9468 24.9757 38.1857 24.7935 37.6031 24.4291C37.0204 24.0648 36.7291 23.5912 36.7291 23.0082C36.7291 22.6985 36.7855 22.4162 36.8983 22.1611C37.0111 21.9243 37.2084 21.6419 37.4903 21.314C37.9601 21.6237 38.5333 21.7786 39.2099 21.7786C39.9241 21.7786 40.4785 21.5691 40.8732 21.1501C41.2866 20.7493 41.6813 19.9933 42.0572 18.882L36.5318 4.09885H40.8168L44.1715 14.1547L47.4698 4.09885H51.7548Z" fill="#1E266D"/>
<path d="M61.5978 3.8256C63.6087 3.8256 65.131 4.46319 66.1647 5.73839C67.1983 6.99537 67.7151 8.85352 67.7151 11.3128C67.7151 12.9159 67.4144 14.3278 66.813 15.5483C66.2116 16.7689 65.3659 17.7161 64.2759 18.3902C63.1858 19.0642 61.9267 19.4012 60.4983 19.4012C59.709 19.4012 58.7411 19.2464 57.5947 18.9367V25.3582H53.4225V9.83724C53.4225 8.36165 53.3567 7.29595 53.2251 6.64014C53.1124 5.9661 52.868 5.39227 52.4922 4.91862C53.0184 4.62715 53.5728 4.39943 54.1554 4.23548C54.7568 4.07153 55.3206 3.98955 55.8469 3.98955C56.2415 3.98955 56.561 4.11707 56.8053 4.37211C57.0497 4.62715 57.2376 5.01882 57.3692 5.54711C58.4968 4.39943 59.9063 3.8256 61.5978 3.8256ZM59.9063 16.778C61.0715 16.778 61.9548 16.3134 62.5562 15.3844C63.1764 14.4553 63.4865 13.0981 63.4865 11.3128C63.4865 9.61864 63.261 8.37987 62.81 7.59654C62.3589 6.79498 61.6447 6.39421 60.6675 6.39421C60.0661 6.39421 59.4835 6.53084 58.9196 6.80409C58.3558 7.07735 57.9142 7.41436 57.5947 7.81514V8.17037V16.2861C58.3652 16.614 59.1358 16.778 59.9063 16.778Z" fill="#1E266D"/>
<path d="M83.9997 10.6297C83.9997 10.8847 83.9527 11.4586 83.8587 12.3512H73.8792C73.9732 13.7357 74.3115 14.8105 74.8941 15.5756C75.4955 16.3407 76.2754 16.7233 77.2339 16.7233C77.6662 16.7233 78.0233 16.6687 78.3052 16.5594C78.6059 16.4501 78.9066 16.2588 79.2073 15.9855C79.5268 15.694 79.9402 15.2295 80.4477 14.5919C80.5416 14.4462 80.739 14.3733 81.0397 14.3733C81.3592 14.3733 81.7444 14.4826 82.1955 14.7012C82.6653 14.9016 83.1634 15.1931 83.6896 15.5756C82.468 18.126 80.3161 19.4012 77.2339 19.4012C74.8659 19.4012 73.0053 18.709 71.6522 17.3245C70.299 15.9218 69.6224 14.009 69.6224 11.5861C69.6224 10.0012 69.9231 8.6258 70.5245 7.45991C71.1447 6.29401 72.0186 5.40137 73.1463 4.78199C74.2927 4.14439 75.6458 3.8256 77.2057 3.8256C79.367 3.8256 81.0397 4.41765 82.2237 5.60176C83.4077 6.78587 83.9997 8.46185 83.9997 10.6297ZM79.7711 10.0558C79.7711 7.61475 78.8878 6.39421 77.1212 6.39421C76.2191 6.39421 75.4955 6.7039 74.9505 7.32328C74.4055 7.94266 74.0672 8.85352 73.9356 10.0558H79.7711Z" fill="#1E266D"/>
<path d="M11.1917 9.23608C12.169 9.50934 12.9677 10.0467 13.5879 10.8483C14.2269 11.6316 14.5464 12.5334 14.5464 13.5535C14.5464 15.3206 13.9168 16.696 12.6576 17.6797C11.3984 18.6452 9.62243 19.128 7.32959 19.128H0V0H7.04768C9.07741 0 10.6843 0.482754 11.8683 1.44826C13.0523 2.39555 13.6443 3.67986 13.6443 5.30118C13.6443 6.23025 13.4282 7.04092 12.9959 7.73317C12.5637 8.42542 11.9623 8.92639 11.1917 9.23608ZM9.24656 5.30118C9.24656 4.46319 8.97405 3.85292 8.42903 3.47036C7.9028 3.0878 7.06647 2.89652 5.92005 2.89652H4.34137V7.92445H5.83548C7.01949 7.92445 7.884 7.71495 8.42903 7.29595C8.97405 6.87696 9.24656 6.21204 9.24656 5.30118ZM6.48387 16.2314C7.46114 16.2314 8.2035 16.1586 8.71093 16.0128C9.23716 15.8489 9.60364 15.5756 9.81037 15.1931C10.0359 14.8105 10.1487 14.264 10.1487 13.5535C10.1487 12.5516 9.86675 11.8502 9.30294 11.4495C8.75792 11.0305 7.79943 10.821 6.42748 10.821H4.34137V16.2314H6.48387Z" fill="#1E266D"/>
</svg>
