<svg width="24" height="20" viewBox="0 0 24 20" fill="none" xmlns="http://www.w3.org/2000/svg">
<path d="M7.55016 19.7499C16.6045 19.7499 21.5583 12.2466 21.5583 5.74174C21.5583 5.5308 21.5536 5.31518 21.5442 5.10424C22.5079 4.40734 23.3395 3.54413 24 2.55518C23.1025 2.95448 22.1496 3.21526 21.1739 3.32861C22.2013 2.71279 22.9705 1.74535 23.3391 0.605645C22.3726 1.17844 21.3156 1.58249 20.2134 1.80049C19.4708 1.01144 18.489 0.488994 17.4197 0.313929C16.3504 0.138864 15.2532 0.320928 14.2977 0.831974C13.3423 1.34302 12.5818 2.15458 12.1338 3.14119C11.6859 4.1278 11.5754 5.23449 11.8195 6.29018C9.86249 6.19197 7.94794 5.68358 6.19998 4.79798C4.45203 3.91237 2.90969 2.66931 1.67297 1.14939C1.0444 2.23312 0.852057 3.51552 1.13503 4.73597C1.418 5.95642 2.15506 7.02333 3.19641 7.71986C2.41463 7.69504 1.64998 7.48456 0.965625 7.1058V7.16674C0.964925 8.30403 1.3581 9.40646 2.07831 10.2866C2.79852 11.1668 3.80132 11.7704 4.91625 11.9949C4.19206 12.193 3.43198 12.2219 2.69484 12.0792C3.00945 13.0573 3.62157 13.9128 4.44577 14.5262C5.26997 15.1397 6.26512 15.4805 7.29234 15.5011C5.54842 16.871 3.39417 17.614 1.17656 17.6105C0.783287 17.6099 0.390399 17.5858 0 17.5383C2.25286 18.9836 4.87353 19.7513 7.55016 19.7499Z" fill="white"/>
</svg>
