<svg width="166" height="50" viewBox="0 0 166 50" fill="none" xmlns="http://www.w3.org/2000/svg">
<path d="M39.0939 37.2925C37.2987 37.2925 35.8776 36.768 34.8304 35.719C33.7833 34.6701 33.2597 33.3679 33.2597 31.8125C33.2597 30.2571 33.7833 28.955 34.8304 27.906C35.8776 26.857 37.2987 26.3325 39.0939 26.3325C40.889 26.3325 42.3101 26.857 43.3573 27.906C44.4418 28.955 44.9841 30.2571 44.9841 31.8125C44.9841 33.3679 44.4418 34.6701 43.3573 35.719C42.3101 36.768 40.889 37.2925 39.0939 37.2925Z" fill="#FF2E6A"/>
<path d="M71.2432 0C71.3914 0.862069 71.4655 1.6523 71.4655 2.37069C71.4655 3.59196 71.2617 4.48994 70.8541 5.06466C70.4464 5.63937 69.798 5.92672 68.9086 5.92672H61.4602V37.7155H53.0113V5.92672H43.2283V0H71.2432Z" fill="#F0F0F2"/>
<path d="M102.047 8.0819L90.2076 39.9785C88.9477 43.3549 87.4469 45.7435 85.7052 47.1444C83.9636 48.5453 81.6105 49.2457 78.646 49.2457C76.7931 49.2457 75.2923 48.8865 74.1436 48.1681C72.9948 47.4497 72.4204 46.5158 72.4204 45.3664C72.4204 44.7557 72.5316 44.199 72.7539 43.6961C72.9763 43.2292 73.3654 42.6724 73.9212 42.0259C74.8476 42.6365 75.9779 42.9418 77.3119 42.9418C78.7201 42.9418 79.8132 42.5287 80.5914 41.7026C81.4067 40.9124 82.1849 39.4217 82.926 37.2306L72.0313 8.0819H80.4803L87.0949 27.9095L93.5983 8.0819H102.047Z" fill="#F0F0F2"/>
<path d="M121.455 7.54311C125.42 7.54311 128.422 8.80029 130.46 11.3147C132.498 13.7931 133.517 17.4569 133.517 22.306C133.517 25.467 132.924 28.2507 131.738 30.6573C130.552 33.0639 128.885 34.9318 126.736 36.2608C124.586 37.5898 122.104 38.2543 119.287 38.2543C117.731 38.2543 115.822 37.949 113.562 37.3384V50H105.335V19.3966C105.335 16.4871 105.206 14.3858 104.946 13.0927C104.724 11.7636 104.242 10.6322 103.501 9.69828C104.539 9.12356 105.632 8.67457 106.781 8.35129C107.966 8.02802 109.078 7.86638 110.116 7.86638C110.894 7.86638 111.524 8.11782 112.006 8.62069C112.487 9.12356 112.858 9.89583 113.117 10.9375C115.341 8.67457 118.12 7.54311 121.455 7.54311ZM118.12 33.0819C120.417 33.0819 122.159 32.166 123.345 30.3341C124.568 28.5022 125.179 25.8261 125.179 22.306C125.179 18.9655 124.735 16.523 123.845 14.9784C122.956 13.398 121.548 12.6078 119.621 12.6078C118.435 12.6078 117.286 12.8772 116.174 13.4159C115.063 13.9547 114.192 14.6193 113.562 15.4095V16.1099V32.1121C115.081 32.7586 116.601 33.0819 118.12 33.0819Z" fill="#F0F0F2"/>
<path d="M165.626 20.9591C165.626 21.4619 165.533 22.5934 165.348 24.3534H145.671C145.856 27.0833 146.523 29.2026 147.672 30.7112C148.858 32.2198 150.396 32.9741 152.286 32.9741C153.138 32.9741 153.842 32.8664 154.398 32.6509C154.991 32.4353 155.584 32.0582 156.177 31.5194C156.807 30.9447 157.622 30.0287 158.622 28.7716C158.808 28.4842 159.197 28.3405 159.79 28.3405C160.42 28.3405 161.179 28.556 162.069 28.9871C162.995 29.3822 163.977 29.9569 165.015 30.7112C162.606 35.7399 158.363 38.2543 152.286 38.2543C147.616 38.2543 143.948 36.8894 141.28 34.1595C138.612 31.3937 137.278 27.6221 137.278 22.8448C137.278 19.7198 137.871 17.0079 139.056 14.7091C140.279 12.4102 142.002 10.6501 144.226 9.42888C146.486 8.1717 149.154 7.54311 152.23 7.54311C156.492 7.54311 159.79 8.71049 162.124 11.0453C164.459 13.38 165.626 16.6846 165.626 20.9591ZM157.288 19.8276C157.288 15.0144 155.547 12.6078 152.063 12.6078C150.285 12.6078 148.858 13.2184 147.783 14.4397C146.709 15.6609 146.042 17.4569 145.782 19.8276H157.288Z" fill="#F0F0F2"/>
<path d="M22.0672 18.2112C23.9942 18.75 25.5691 19.8096 26.792 21.3901C28.0519 22.9346 28.6818 24.7126 28.6818 26.7241C28.6818 30.2083 27.4405 32.9203 24.9577 34.8599C22.4749 36.7637 18.973 37.7155 14.4521 37.7155H0V0H13.8962C17.8984 0 21.0667 0.951868 23.4013 2.85561C25.7358 4.72342 26.9031 7.25575 26.9031 10.4526C26.9031 12.2845 26.477 13.8829 25.6247 15.2478C24.7724 16.6128 23.5866 17.6006 22.0672 18.2112ZM18.2319 10.4526C18.2319 8.80029 17.6946 7.59698 16.6199 6.84267C15.5823 6.08836 13.9333 5.71121 11.6728 5.71121H8.56009V15.625H11.5061C13.8407 15.625 15.5453 15.2119 16.6199 14.3858C17.6946 13.5596 18.2319 12.2486 18.2319 10.4526ZM12.7845 32.0043C14.7115 32.0043 16.1752 31.8606 17.1758 31.5733C18.2133 31.25 18.9359 30.7112 19.3436 29.9569C19.7883 29.2026 20.0106 28.125 20.0106 26.7241C20.0106 24.7486 19.4547 23.3657 18.343 22.5754C17.2684 21.7493 15.3785 21.3362 12.6734 21.3362H8.56009V32.0043H12.7845Z" fill="#F0F0F2"/>
</svg>
