<svg width="212" height="64" viewBox="0 0 212 64" fill="none" xmlns="http://www.w3.org/2000/svg">
<path d="M50.04 47.7338C47.7422 47.7338 45.9232 47.0625 44.5828 45.7198C43.2424 44.3771 42.5723 42.7103 42.5723 40.7195C42.5723 38.7286 43.2424 37.0618 44.5828 35.7191C45.9232 34.3764 47.7422 33.7051 50.04 33.7051C52.3377 33.7051 54.1568 34.3764 55.4971 35.7191C56.8854 37.0618 57.5795 38.7286 57.5795 40.7195C57.5795 42.7103 56.8854 44.3771 55.4971 45.7198C54.1568 47.0625 52.3377 47.7338 50.04 47.7338Z" fill="#FF2E6A"/>
<path d="M91.191 0C91.3807 1.10345 91.4756 2.11494 91.4756 3.03449C91.4756 4.5977 91.2147 5.74713 90.693 6.48276C90.1712 7.21839 89.3411 7.58621 88.2028 7.58621H78.6688V48.2759H67.8542V7.58621H55.332V0H91.191Z" fill="#F0F0F2"/>
<path d="M130.62 10.3448L115.466 51.1724C113.853 55.4943 111.932 58.5517 109.702 60.3448C107.473 62.1379 104.461 63.0345 100.667 63.0345C98.295 63.0345 96.3739 62.5747 94.9035 61.6552C93.4331 60.7356 92.6979 59.5402 92.6979 58.069C92.6979 57.2874 92.8402 56.5747 93.1248 55.931C93.4094 55.3333 93.9074 54.6207 94.6189 53.7931C95.8047 54.5747 97.2514 54.9655 98.959 54.9655C100.761 54.9655 102.161 54.4368 103.157 53.3793C104.2 52.3678 105.196 50.4598 106.145 47.6552L92.1999 10.3448H103.014L111.481 35.7241L119.806 10.3448H130.62Z" fill="#F0F0F2"/>
<path d="M155.462 9.65518C160.538 9.65518 164.38 11.2644 166.988 14.4828C169.597 17.6552 170.902 22.3448 170.902 28.5517C170.902 32.5977 170.143 36.1609 168.625 39.2414C167.107 42.3218 164.972 44.7126 162.221 46.4138C159.47 48.1149 156.292 48.9655 152.687 48.9655C150.695 48.9655 148.253 48.5747 145.359 47.7931V64H134.829V24.8276C134.829 21.1034 134.663 18.4138 134.331 16.7586C134.046 15.0575 133.43 13.6092 132.481 12.4138C133.809 11.6782 135.209 11.1035 136.679 10.6897C138.197 10.2759 139.62 10.069 140.948 10.069C141.944 10.069 142.75 10.3908 143.367 11.0345C143.984 11.6782 144.458 12.6667 144.79 14C147.636 11.1035 151.193 9.65518 155.462 9.65518ZM151.193 42.3448C154.134 42.3448 156.363 41.1724 157.881 38.8276C159.447 36.4828 160.229 33.0575 160.229 28.5517C160.229 24.2759 159.66 21.1494 158.522 19.1724C157.383 17.1494 155.581 16.1379 153.114 16.1379C151.596 16.1379 150.126 16.4828 148.703 17.1724C147.28 17.8621 146.165 18.7126 145.359 19.7241V20.6207V41.1035C147.304 41.931 149.249 42.3448 151.193 42.3448Z" fill="#F0F0F2"/>
<path d="M212.001 26.8276C212.001 27.4713 211.882 28.9195 211.645 31.1724H186.459C186.696 34.6667 187.55 37.3793 189.02 39.3103C190.538 41.2414 192.506 42.2069 194.925 42.2069C196.016 42.2069 196.918 42.069 197.629 41.7931C198.388 41.5172 199.147 41.0345 199.906 40.3448C200.712 39.6092 201.756 38.4368 203.036 36.8276C203.273 36.4598 203.772 36.2759 204.53 36.2759C205.337 36.2759 206.309 36.5517 207.448 37.1035C208.633 37.6092 209.89 38.3448 211.218 39.3103C208.135 45.7471 202.704 48.9655 194.925 48.9655C188.949 48.9655 184.253 47.2184 180.838 43.7241C177.423 40.1839 175.715 35.3563 175.715 29.2414C175.715 25.2414 176.474 21.7701 177.992 18.8276C179.557 15.8851 181.763 13.6322 184.609 12.069C187.502 10.4598 190.917 9.65518 194.854 9.65518C200.309 9.65518 204.53 11.1494 207.519 14.1379C210.507 17.1264 212.001 21.3563 212.001 26.8276ZM201.329 25.3793C201.329 19.2184 199.099 16.1379 194.641 16.1379C192.364 16.1379 190.538 16.9195 189.162 18.4828C187.787 20.046 186.933 22.3448 186.601 25.3793H201.329Z" fill="#F0F0F2"/>
<path d="M28.2461 23.3103C30.7126 24 32.7284 25.3563 34.2937 27.3793C35.9064 29.3563 36.7128 31.6322 36.7128 34.2069C36.7128 38.6667 35.1238 42.1379 31.9458 44.6207C28.7678 47.0575 24.2854 48.2759 18.4987 48.2759H0V0H17.7872C22.9099 0 26.9654 1.21839 29.9536 3.65517C32.9419 6.04598 34.436 9.28736 34.436 13.3793C34.436 15.7241 33.8905 17.7701 32.7996 19.5172C31.7086 21.2644 30.1908 22.5287 28.2461 23.3103ZM23.3368 13.3793C23.3368 11.2644 22.649 9.72414 21.2735 8.75862C19.9454 7.7931 17.8346 7.31035 14.9412 7.31035H10.9569V20H14.7278C17.716 20 19.8979 19.4713 21.2735 18.4138C22.649 17.3563 23.3368 15.6782 23.3368 13.3793ZM16.3642 40.9655C18.8307 40.9655 20.7043 40.7816 21.985 40.4138C23.3131 40 24.238 39.3103 24.7598 38.3448C25.329 37.3793 25.6136 36 25.6136 34.2069C25.6136 31.6782 24.9021 29.908 23.4791 28.8966C22.1035 27.8391 19.6845 27.3103 16.2219 27.3103H10.9569V40.9655H16.3642Z" fill="#F0F0F2"/>
</svg>
